<svg width="24" height="24" viewBox="0 0 24 24" fill="none" xmlns="http://www.w3.org/2000/svg">
<path d="M12.0013 0.666748C5.74105 0.666748 0.667969 5.74125 0.667969 12.0001C0.667969 18.2589 5.74105 23.3334 12.0013 23.3334C18.2616 23.3334 23.3346 18.2589 23.3346 12.0001C23.3346 5.74125 18.2616 0.666748 12.0013 0.666748ZM17.2529 15.2485C17.8068 15.8024 17.8068 16.6977 17.2529 17.2517C16.9766 17.5279 16.614 17.6667 16.2513 17.6667C15.8886 17.6667 15.526 17.5279 15.2497 17.2517L12.0013 14.0032L8.75288 17.2517C8.47663 17.5279 8.11397 17.6667 7.7513 17.6667C7.38863 17.6667 7.02597 17.5279 6.74972 17.2517C6.1958 16.6977 6.1958 15.8024 6.74972 15.2485L9.99813 12.0001L6.74972 8.75166C6.1958 8.19775 6.1958 7.30241 6.74972 6.7485C7.30364 6.19458 8.19897 6.19458 8.75288 6.7485L12.0013 9.99691L15.2497 6.7485C15.8036 6.19458 16.699 6.19458 17.2529 6.7485C17.8068 7.30241 17.8068 8.19775 17.2529 8.75166L14.0045 12.0001L17.2529 15.2485Z" fill="#777777"/>
</svg>
