<svg width="16" height="16" viewBox="0 0 16 16" fill="none" xmlns="http://www.w3.org/2000/svg">
<path d="M8.79794 7.52646C8.85949 7.58844 8.90833 7.66217 8.94167 7.74341C8.975 7.82465 8.99216 7.91179 8.99216 7.9998C8.99216 8.0878 8.975 8.17494 8.94167 8.25618C8.90833 8.33742 8.85949 8.41116 8.79794 8.47313L5.78419 11.5265C5.72265 11.5884 5.6738 11.6622 5.64047 11.7434C5.60713 11.8247 5.58997 11.9118 5.58997 11.9998C5.58997 12.0878 5.60713 12.1749 5.64047 12.2562C5.6738 12.3374 5.72265 12.4112 5.78419 12.4731C5.90721 12.5973 6.07363 12.667 6.24709 12.667C6.42055 12.667 6.58696 12.5973 6.70998 12.4731L9.72374 9.41313C10.0926 9.03813 10.2998 8.5298 10.2998 7.9998C10.2998 7.4698 10.0926 6.96146 9.72374 6.58646L6.70999 3.52646C6.58769 3.4033 6.42262 3.33387 6.25037 3.33313C6.16396 3.33262 6.0783 3.34944 5.9983 3.38262C5.9183 3.41579 5.84554 3.46468 5.78419 3.52646C5.72265 3.58844 5.6738 3.66217 5.64047 3.74341C5.60714 3.82465 5.58997 3.91179 5.58997 3.9998C5.58997 4.0878 5.60714 4.17494 5.64047 4.25618C5.6738 4.33742 5.72265 4.41115 5.78419 4.47313L8.79794 7.52646Z" fill="black"/>
</svg>
