<svg width="16" height="16" viewBox="0 0 16 16" fill="none" xmlns="http://www.w3.org/2000/svg">
<g clip-path="url(#clip0_1097_7404)">
<path d="M11.667 1.27832C10.9163 1.29 10.1819 1.49956 9.53814 1.88583C8.89434 2.27211 8.36387 2.82143 8.0003 3.47832C7.63672 2.82143 7.10625 2.27211 6.46246 1.88583C5.81866 1.49956 5.08433 1.29 4.33363 1.27832C3.13692 1.33031 2.00944 1.85382 1.19749 2.73448C0.385537 3.61513 -0.0448693 4.78134 0.000297715 5.97832C0.000297715 9.00965 3.19096 12.3203 5.86696 14.565C6.46444 15.0671 7.21987 15.3423 8.0003 15.3423C8.78073 15.3423 9.53615 15.0671 10.1336 14.565C12.8096 12.3203 16.0003 9.00965 16.0003 5.97832C16.0455 4.78134 15.6151 3.61513 14.8031 2.73448C13.9912 1.85382 12.8637 1.33031 11.667 1.27832ZM9.27696 13.545C8.91962 13.8459 8.46747 14.0109 8.0003 14.0109C7.53313 14.0109 7.08098 13.8459 6.72363 13.545C3.2983 10.671 1.33363 7.91365 1.33363 5.97832C1.28806 5.1348 1.57788 4.30747 2.13987 3.67679C2.70187 3.0461 3.49045 2.66322 4.33363 2.61165C5.17681 2.66322 5.96539 3.0461 6.52739 3.67679C7.08939 4.30747 7.3792 5.1348 7.33363 5.97832C7.33363 6.15513 7.40387 6.3247 7.52889 6.44973C7.65392 6.57475 7.82349 6.64499 8.0003 6.64499C8.17711 6.64499 8.34668 6.57475 8.4717 6.44973C8.59673 6.3247 8.66696 6.15513 8.66696 5.97832C8.62139 5.1348 8.91121 4.30747 9.47321 3.67679C10.0352 3.0461 10.8238 2.66322 11.667 2.61165C12.5101 2.66322 13.2987 3.0461 13.8607 3.67679C14.4227 4.30747 14.7125 5.1348 14.667 5.97832C14.667 7.91365 12.7023 10.671 9.27696 13.5423V13.545Z" fill="black"/>
</g>
<defs>
<clipPath id="clip0_1097_7404">
<rect width="16" height="16" fill="white"/>
</clipPath>
</defs>
</svg>
