<svg width="16" height="16" viewBox="0 0 16 16" fill="none" xmlns="http://www.w3.org/2000/svg">
<g clip-path="url(#clip0_594_10156)">
<path d="M8.66698 0.666724C8.66698 0.489913 8.73722 0.320344 8.86224 0.19532C8.98727 0.0702955 9.15684 5.75652e-05 9.33365 5.75652e-05C11.1012 0.00199863 12.7957 0.705001 14.0455 1.95482C15.2954 3.20465 15.9984 4.89921 16.0003 6.66673C16.0003 6.84354 15.9301 7.01311 15.8051 7.13813C15.68 7.26315 15.5105 7.33339 15.3336 7.33339C15.1568 7.33339 14.9873 7.26315 14.8622 7.13813C14.7372 7.01311 14.667 6.84354 14.667 6.66673C14.6654 5.25272 14.103 3.89709 13.1031 2.89724C12.1033 1.89739 10.7476 1.33498 9.33365 1.33339C9.15684 1.33339 8.98727 1.26315 8.86224 1.13813C8.73722 1.0131 8.66698 0.843535 8.66698 0.666724ZM9.33365 4.00006C10.0409 4.00006 10.7192 4.28101 11.2193 4.78111C11.7194 5.2812 12.0003 5.95948 12.0003 6.66673C12.0003 6.84354 12.0706 7.01311 12.1956 7.13813C12.3206 7.26315 12.4902 7.33339 12.667 7.33339C12.8438 7.33339 13.0134 7.26315 13.1384 7.13813C13.2634 7.01311 13.3336 6.84354 13.3336 6.66673C13.3326 5.60618 12.9108 4.58938 12.1609 3.83947C11.411 3.08955 10.3942 2.66778 9.33365 2.66672C9.15684 2.66672 8.98727 2.73696 8.86224 2.86199C8.73722 2.98701 8.66698 3.15658 8.66698 3.33339C8.66698 3.5102 8.73722 3.67977 8.86224 3.8048C8.98727 3.92982 9.15684 4.00006 9.33365 4.00006ZM15.3956 11.1594C15.782 11.5468 15.9989 12.0716 15.9989 12.6187C15.9989 13.1658 15.782 13.6906 15.3956 14.0781L14.789 14.7774C9.32898 20.0047 -3.95768 6.72139 1.18898 1.24406L1.95565 0.577391C2.3435 0.201842 2.8636 -0.00590972 3.40345 -0.000919207C3.9433 0.0040713 4.45948 0.221403 4.84032 0.604058C4.86098 0.624724 6.09632 2.22939 6.09632 2.22939C6.46287 2.61448 6.66692 3.12601 6.66605 3.65766C6.66518 4.18931 6.45946 4.70017 6.09165 5.08406L5.31965 6.05473C5.74688 7.0928 6.37502 8.03622 7.16799 8.83079C7.96095 9.62535 8.9031 10.2554 9.94032 10.6847L10.917 9.90806C11.3009 9.54053 11.8117 9.33506 12.3432 9.33431C12.8747 9.33357 13.386 9.53761 13.771 9.90406C13.771 9.90406 15.375 11.1387 15.3956 11.1594ZM14.4783 12.1287C14.4783 12.1287 12.883 10.9014 12.8623 10.8807C12.725 10.7445 12.5394 10.6681 12.346 10.6681C12.1526 10.6681 11.967 10.7445 11.8296 10.8807C11.8116 10.8994 10.467 11.9707 10.467 11.9707C10.3764 12.0429 10.2685 12.0901 10.1541 12.1079C10.0396 12.1257 9.92253 12.1133 9.81431 12.0721C8.47062 11.5718 7.25014 10.7886 6.23554 9.77544C5.22094 8.76234 4.43592 7.54301 3.93365 6.20006C3.88911 6.09036 3.8746 5.97078 3.89158 5.85362C3.90857 5.73645 3.95646 5.62592 4.03032 5.53339C4.03032 5.53339 5.10165 4.18806 5.11965 4.17072C5.25583 4.03338 5.33223 3.8478 5.33223 3.65439C5.33223 3.46098 5.25583 3.2754 5.11965 3.13806C5.09898 3.11806 3.87165 1.52139 3.87165 1.52139C3.73225 1.3964 3.55032 1.32945 3.36315 1.33429C3.17598 1.33912 2.99774 1.41537 2.86498 1.54739L2.09832 2.21406C-1.66302 6.73672 9.85098 17.6121 13.8143 13.8667L14.4216 13.1667C14.564 13.0349 14.6495 12.8529 14.66 12.6592C14.6706 12.4655 14.6054 12.2753 14.4783 12.1287Z" fill="#260001"/>
</g>
<defs>
<clipPath id="clip0_594_10156">
<rect width="16" height="16" fill="white"/>
</clipPath>
</defs>
</svg>
